<svg xmlns="http://www.w3.org/2000/svg" xmlns:xlink="http://www.w3.org/1999/xlink" xmlns:lucid="lucid" width="1353.96" height="1277.76"><g transform="translate(20.5 100.5)" lucid:page-tab-id="Q7OmPvR0pnvU"><path d="M0-500h1500v2000H0z" fill="#fff"/><path d="M825.4 360h-49.84a12 12 0 0 1-12-12v-64.1a12 12 0 0 0-12-12H701.7" stroke="#3a414a" fill="none"/><path d="M825.4 350v20M845.4 360h-20M701.7 281.9v-20M681.7 271.9h20" stroke="#3a414a" fill="#fff"/><path d="M80 939v-78.5" stroke="#3a414a" fill="none"/><path d="M90 949H70M80 959v-20M90 939H70" stroke="#3a414a" fill="#fff"/><path d="M90 840.72l-10 20-10-20" stroke="#3a414a" fill="#fff" fill-opacity="0"/><path d="M80 840.72v20M70 860.72h20" stroke="#3a414a" fill="#fff"/><path d="M560.7 320.5v203.74" stroke="#3a414a" fill="none"/><path d="M550.7 310.5h20M560.7 300.5v20M550.7 320.5h20" stroke="#3a414a" fill="#fff"/><path d="M550.7 544l10-20 10 20" stroke="#3a414a" fill="#fff" fill-opacity="0"/><path d="M560.7 544v-20M570.7 524h-20" stroke="#3a414a" fill="#fff"/><path d="M80 421.75V680" stroke="#3a414a" fill="none"/><path d="M70 411.75h20M80 401.75v20M70 421.75h20" stroke="#3a414a" fill="#fff"/><path d="M70 719.28l10-20 10 20" stroke="#3a414a" fill="#fff" fill-opacity="0"/><path d="M80 719.28v-20M90 689.28c0 5.52-4.48 10-10 10s-10-4.48-10-10c0-5.53 4.48-10 10-10s10 4.47 10 10" stroke="#3a414a" fill="#fff"/><path d="M456 635.4H335.2a12 12 0 0 0-12 12V768a12 12 0 0 1-12 12H200" stroke="#3a414a" fill="none"/><path d="M466 625.4v20M476 635.4h-20M456 625.4v20" stroke="#3a414a" fill="#fff"/><path d="M160.72 770l20 10-20 10" stroke="#3a414a" fill="#fff" fill-opacity="0"/><path d="M160.72 780h20M200.72 780c0 5.52-4.47 10-10 10-5.52 0-10-4.48-10-10s4.48-10 10-10c5.53 0 10 4.48 10 10" stroke="#3a414a" fill="#fff"/><path d="M656.93 660.6h161.6" stroke="#3a414a" fill="none"/><path d="M656.93 670.6v-20M636.93 660.6h20" stroke="#3a414a" fill="#fff"/><path d="M837.72 670.6l-20-10 20-10" stroke="#3a414a" fill="#fff" fill-opacity="0"/><path d="M837.72 660.6h-20" stroke="#3a414a" fill="#fff"/><path d="M456 554.8H330.24a12 12 0 0 1-12-12V353.26a12 12 0 0 0-12-12H200" stroke="#3a414a" fill="none"/><path d="M466 544.8v20M476 554.8h-20M456 544.8v20" stroke="#3a414a" fill="#fff"/><path d="M160.72 331.25l20 10-20 10" stroke="#3a414a" fill="#fff" fill-opacity="0"/><path d="M160.72 341.25h20M200.72 341.25c0 5.52-4.47 10-10 10-5.52 0-10-4.48-10-10s4.48-10 10-10c5.53 0 10 4.48 10 10" stroke="#3a414a" fill="#fff"/><path d="M502.75 685.24v52.5a12 12 0 0 1-12 12H448.5a12 12 0 0 0-12 12v53.1" stroke="#3a414a" fill="none"/><path d="M492.75 685.24h20M502.75 665.24v20" stroke="#3a414a" fill="#fff"/><path d="M426.5 834.04l10-20 10 20" stroke="#3a414a" fill="#fff" fill-opacity="0"/><path d="M436.5 834.04v-20" stroke="#3a414a" fill="#fff"/><path d="M436.5 994.26v-80.3" stroke="#3a414a" fill="none"/><path d="M446.5 994.26h-20M436.5 1014.26v-20" stroke="#3a414a" fill="#fff"/><path d="M446.5 894.76l-10 20-10-20" stroke="#3a414a" fill="#fff" fill-opacity="0"/><path d="M436.5 894.76v20" stroke="#3a414a" fill="#fff"/><path d="M80 1099.4v63.86a12 12 0 0 0 12 12h325.36a12 12 0 0 0 12-12v-8.6" stroke="#3a414a" fill="none"/><path d="M90 1080.22l-10 20-10-20" stroke="#3a414a" fill="#fff" fill-opacity="0"/><path d="M80 1080.22v20" stroke="#3a414a" fill="#fff"/><path d="M439.36 1135.48l-10 20-10-20" stroke="#3a414a" fill="#fff" fill-opacity="0"/><path d="M429.36 1135.48v20" stroke="#3a414a" fill="#fff"/><path d="M855.8-75a5 5 0 0 1 5-5h230a5 5 0 0 1 5 5V6.26a5 5 0 0 1-5 5h-230a5 5 0 0 1-5-5z" stroke="#282c33" fill="#fcfcca"/><use xlink:href="#a" transform="matrix(1,0,0,1,855.7861458476494,-80) translate(67.08 48.9)"/><path d="M835.3-34.37H596.2a12 12 0 0 0-12 12V176.1" stroke="#3a414a" fill="none"/><path d="M835.3-44.37v20M855.3-34.37h-20" stroke="#3a414a" fill="#fff"/><path d="M574.2 195.28l10-20 10 20" stroke="#3a414a" fill="#fff" fill-opacity="0"/><path d="M584.2 195.28v-20" stroke="#3a414a" fill="#fff"/><path d="M860 55a5 5 0 0 1 5-5h230a5 5 0 0 1 5 5v81.26a5 5 0 0 1-5 5H865a5 5 0 0 1-5-5z" stroke="#282c33" fill="#b8f5ed"/><use xlink:href="#b" transform="matrix(1,0,0,1,860,49.99486963800979) translate(60.57999999999999 48.9)"/><path d="M653.43 175.5v-67.87a12 12 0 0 1 12-12H840.1" stroke="#3a414a" fill="none"/><path d="M663.43 175.5h-20M653.43 195.5v-20" stroke="#3a414a" fill="#fff"/><path d="M859.28 105.63l-20-10 20-10" stroke="#3a414a" fill="#fff" fill-opacity="0"/><path d="M859.28 95.63h-20" stroke="#3a414a" fill="#fff"/><path d="M220-35a5 5 0 0 1 5-5h230a5 5 0 0 1 5 5v81.26a5 5 0 0 1-5 5H225a5 5 0 0 1-5-5z" stroke="#282c33" fill="#fcfcca"/><use xlink:href="#c" transform="matrix(1,0,0,1,220,-40) translate(85.53 48.9)"/><path d="M480.5 5.63h8a12 12 0 0 1 12 12v16.65a12 12 0 0 1-12 12h-8.6" stroke="#3a414a" fill="none"/><path d="M480.5 15.63v-20M460.5 5.63h20" stroke="#3a414a" fill="#fff"/><path d="M460.72 36.28l20 10-20 10" stroke="#3a414a" fill="#fff" fill-opacity="0"/><path d="M460.72 46.28h20" stroke="#3a414a" fill="#fff"/><path d="M340 71.76v39.87a12 12 0 0 0 12 12h127.2a12 12 0 0 1 12 12v40.46" stroke="#3a414a" fill="none"/><path d="M330 71.76h20M340 51.76v20" stroke="#3a414a" fill="#fff"/><path d="M481.2 195.28l10-20 10 20" stroke="#3a414a" fill="#fff" fill-opacity="0"/><path d="M491.2 195.28v-20" stroke="#3a414a" fill="#fff"/><path d="M399.7 201a5 5 0 0 1 5-5h271.5a5 5 0 0 1 5 5v94a5 5 0 0 1-5 5H404.7a5 5 0 0 1-5-5z" stroke="#282c33" fill="#fcfcca"/><use xlink:href="#d" transform="matrix(1,0,0,1,399.70581277968415,196) translate(110.53 56.65)"/><path d="M1127.04 170.9a5 5 0 0 1 5-5h175.92a5 5 0 0 1 5 5v67.62a5 5 0 0 1-5 5h-175.92a5 5 0 0 1-5-5z" stroke="#282c33" fill="#b8f5ed"/><use xlink:href="#e" transform="matrix(1,0,0,1,1127.0430918179557,165.90480949234333) translate(25.57999999999999 43.65)"/><path d="M845.9 305a5 5 0 0 1 5-5h150a5 5 0 0 1 5 5v110a5 5 0 0 1-5 5h-150a5 5 0 0 1-5-5z" stroke="#282c33" fill="#b8f5ed"/><use xlink:href="#f" transform="matrix(1,0,0,1,845.9138163640888,300) translate(44.07999999999999 63.15)"/><path d="M1140 305a5 5 0 0 1 5-5h150a5 5 0 0 1 5 5v110a5 5 0 0 1-5 5h-150a5 5 0 0 1-5-5z" stroke="#282c33" fill="#b8f5ed"/><use xlink:href="#g" transform="matrix(1,0,0,1,1140,300) translate(40.58 63.15)"/><path d="M1120.1 360h-94.27" stroke="#3a414a" fill="none"/><path d="M1139.28 370l-20-10 20-10" stroke="#3a414a" fill="#fff" fill-opacity="0"/><path d="M1139.28 360h-20" stroke="#3a414a" fill="#fff"/><path d="M1006.64 350l20 10-20 10" stroke="#3a414a" fill="#fff" fill-opacity="0"/><path d="M1006.64 360h20" stroke="#3a414a" fill="#fff"/><path d="M476.5 549.74a5 5 0 0 1 5-5h150a5 5 0 0 1 5 5v110a5 5 0 0 1-5 5h-150a5 5 0 0 1-5-5z" stroke="#282c33" fill="#b8f5ed"/><use xlink:href="#h" transform="matrix(1,0,0,1,476.4927354383726,544.7385705893498) translate(30.554999999999993 63.15)"/><path d="M838.44 549.74a5 5 0 0 1 5-5H965.2a5 5 0 0 1 5 5v50.83a5 5 0 0 1-5 5H843.44a5 5 0 0 1-5-5z" stroke="#282c33" fill="#b8f5ed"/><use xlink:href="#i" transform="matrix(1,0,0,1,838.4440002813852,544.7385705893498) translate(51.529999999999994 33.4625)"/><path d="M817.94 575.15H656.4" stroke="#3a414a" fill="none"/><path d="M817.94 565.15v20M837.94 575.15h-20" stroke="#3a414a" fill="#fff"/><path d="M637.22 565.15l20 10-20 10" stroke="#3a414a" fill="#fff" fill-opacity="0"/><path d="M637.22 575.15h20" stroke="#3a414a" fill="#fff"/><path d="M838.44 635.18a5 5 0 0 1 5-5H965.2a5 5 0 0 1 5 5V686a5 5 0 0 1-5 5H843.44a5 5 0 0 1-5-5z" stroke="#282c33" fill="#cfe4ff"/><use xlink:href="#j" transform="matrix(1,0,0,1,838.4440002813852,630.1851722805515) translate(10.029999999999996 33.4625)"/><path d="M0 286.25a5 5 0 0 1 5-5h150a5 5 0 0 1 5 5v110a5 5 0 0 1-5 5H5a5 5 0 0 1-5-5z" stroke="#282c33" fill="#cfe4ff"/><use xlink:href="#k" transform="matrix(1,0,0,1,0,281.24866025194706) translate(70.53 63.15)"/><path d="M0-35a5 5 0 0 1 5-5h150a5 5 0 0 1 5 5V75a5 5 0 0 1-5 5H5a5 5 0 0 1-5-5z" stroke="#282c33" fill="#fcfcca"/><use xlink:href="#l" transform="matrix(1,0,0,1,2.842170943040401e-14,-40) translate(40.605 63.15)"/><path d="M80 100.5v160.84" stroke="#3a414a" fill="none"/><path d="M70 100.5h20M80 80.5v20" stroke="#3a414a" fill="#fff"/><path d="M70 280.52l10-20 10 20" stroke="#3a414a" fill="#fff" fill-opacity="0"/><path d="M80 280.52v-20" stroke="#3a414a" fill="#fff"/><path d="M0 725a5 5 0 0 1 5-5h150a5 5 0 0 1 5 5v110a5 5 0 0 1-5 5H5a5 5 0 0 1-5-5z" stroke="#282c33" fill="#cfe4ff"/><use xlink:href="#m" transform="matrix(1,0,0,1,0,720) translate(17.104999999999997 63.15)"/><path d="M0 964.5a5 5 0 0 1 5-5h150a5 5 0 0 1 5 5v110a5 5 0 0 1-5 5H5a5 5 0 0 1-5-5z" stroke="#282c33" fill="#cfe4ff"/><use xlink:href="#n" transform="matrix(1,0,0,1,0,959.5000499999999) translate(43.55499999999999 63.15)"/><path d="M336.5 839.76a5 5 0 0 1 5-5h190a5 5 0 0 1 5 5v49.27a5 5 0 0 1-5 5h-190a5 5 0 0 1-5-5z" stroke="#282c33" fill="#cfe4ff"/><use xlink:href="#o" transform="matrix(1,0,0,1,336.4927354383726,834.76147941065) translate(13.605000000000013 33.15)"/><path d="M349.36 1019.76a5 5 0 0 1 5-5h150a5 5 0 0 1 5 5v110a5 5 0 0 1-5 5h-150a5 5 0 0 1-5-5z" stroke="#282c33" fill="#cfe4ff"/><use xlink:href="#p" transform="matrix(1,0,0,1,349.364118286246,1014.76147941065) translate(20.054999999999993 63.15)"/><path d="M560 839.76a5 5 0 0 1 5-5h190a5 5 0 0 1 5 5v49.27a5 5 0 0 1-5 5H565a5 5 0 0 1-5-5z" stroke="#282c33" fill="#cfe4ff"/><use xlink:href="#q" transform="matrix(1,0,0,1,560,834.76147941065) translate(13.65500000000001 33.15)"/><path d="M580 1019.76a5 5 0 0 1 5-5h150a5 5 0 0 1 5 5v110a5 5 0 0 1-5 5H585a5 5 0 0 1-5-5z" stroke="#282c33" fill="#cfe4ff"/><use xlink:href="#r" transform="matrix(1,0,0,1,580,1014.76147941065) translate(20.10499999999999 63.15)"/><path d="M660 814.85v-53.1a12 12 0 0 0-12-12h-49.23a12 12 0 0 1-12-12v-52.5" stroke="#3a414a" fill="none"/><path d="M650 834.04l10-20 10 20" stroke="#3a414a" fill="#fff" fill-opacity="0"/><path d="M660 834.04v-20M576.77 685.24h20M586.77 665.24v20" stroke="#3a414a" fill="#fff"/><path d="M660 994.26v-80.3" stroke="#3a414a" fill="none"/><path d="M670 994.26h-20M660 1014.26v-20" stroke="#3a414a" fill="#fff"/><path d="M670 894.76l-10 20-10-20" stroke="#3a414a" fill="#fff" fill-opacity="0"/><path d="M660 894.76v20" stroke="#3a414a" fill="#fff"/><path d="M820 170.9a5 5 0 0 1 5-5h175.9a5 5 0 0 1 5 5v67.62a5 5 0 0 1-5 5H825a5 5 0 0 1-5-5z" stroke="#282c33" fill="#b8f5ed"/><use xlink:href="#e" transform="matrix(1,0,0,1,820,165.90480949327267) translate(25.57999999999999 43.65)"/><path d="M1026.4 204.7h80.73" stroke="#3a414a" fill="none"/><path d="M1026.4 214.7v-20M1006.4 204.7h20" stroke="#3a414a" fill="#fff"/><path d="M1126.32 214.7l-20-10 20-10" stroke="#3a414a" fill="#fff" fill-opacity="0"/><path d="M1126.32 204.7h-20" stroke="#3a414a" fill="#fff"/><path d="M799.5 204.7h-98.4" stroke="#3a414a" fill="none"/><path d="M799.5 194.7v20M819.5 204.7h-20" stroke="#3a414a" fill="#fff"/><path d="M681.92 194.7l20 10-20 10" stroke="#3a414a" fill="#fff" fill-opacity="0"/><path d="M681.92 204.7h20" stroke="#3a414a" fill="#fff"/><defs><path fill="#3a414a" d="M210-169c-67 3-38 105-44 169h-31v-121c0-29-5-50-35-48C34-165 62-65 56 0H25l-1-190h30c1 10-1 24 2 32 10-44 99-50 107 0 11-21 27-35 58-36 85-2 47 119 55 194h-31v-121c0-29-5-49-35-48" id="s"/><path fill="#3a414a" d="M141-36C126-15 110 5 73 4 37 3 15-17 15-53c-1-64 63-63 125-63 3-35-9-54-41-54-24 1-41 7-42 31l-33-3c5-37 33-52 76-52 45 0 72 20 72 64v82c-1 20 7 32 28 27v20c-31 9-61-2-59-35zM48-53c0 20 12 33 32 33 41-3 63-29 60-74-43 2-92-5-92 41" id="t"/><path fill="#3a414a" d="M117-194c89-4 53 116 60 194h-32v-121c0-31-8-49-39-48C34-167 62-67 57 0H25l-1-190h30c1 10-1 24 2 32 11-22 29-35 61-36" id="u"/><path fill="#3a414a" d="M84 4C-5 8 30-112 23-190h32v120c0 31 7 50 39 49 72-2 45-101 50-169h31l1 190h-30c-1-10 1-25-2-33-11 22-28 36-60 37" id="v"/><path fill="#3a414a" d="M101-234c-31-9-42 10-38 44h38v23H63V0H32v-167H5v-23h27c-7-52 17-82 69-68v24" id="w"/><path fill="#3a414a" d="M96-169c-40 0-48 33-48 73s9 75 48 75c24 0 41-14 43-38l32 2c-6 37-31 61-74 61-59 0-76-41-82-99-10-93 101-131 147-64 4 7 5 14 7 22l-32 3c-4-21-16-35-41-35" id="x"/><path fill="#3a414a" d="M59-47c-2 24 18 29 38 22v24C64 9 27 4 27-40v-127H5v-23h24l9-43h21v43h35v23H59v120" id="y"/><path fill="#3a414a" d="M114-163C36-179 61-72 57 0H25l-1-190h30c1 12-1 29 2 39 6-27 23-49 58-41v29" id="z"/><path fill="#3a414a" d="M100-194c63 0 86 42 84 106H49c0 40 14 67 53 68 26 1 43-12 49-29l28 8c-11 28-37 45-77 45C44 4 14-33 15-96c1-61 26-98 85-98zm52 81c6-60-76-77-97-28-3 7-6 17-6 28h103" id="A"/><g id="a"><use transform="matrix(0.05,0,0,0.05,0,0)" xlink:href="#s"/><use transform="matrix(0.05,0,0,0.05,14.950000000000001,0)" xlink:href="#t"/><use transform="matrix(0.05,0,0,0.05,24.950000000000003,0)" xlink:href="#u"/><use transform="matrix(0.05,0,0,0.05,34.95,0)" xlink:href="#v"/><use transform="matrix(0.05,0,0,0.05,44.95,0)" xlink:href="#w"/><use transform="matrix(0.05,0,0,0.05,49.95,0)" xlink:href="#t"/><use transform="matrix(0.05,0,0,0.05,59.95,0)" xlink:href="#x"/><use transform="matrix(0.05,0,0,0.05,68.95,0)" xlink:href="#y"/><use transform="matrix(0.05,0,0,0.05,73.95,0)" xlink:href="#v"/><use transform="matrix(0.05,0,0,0.05,83.95,0)" xlink:href="#z"/><use transform="matrix(0.05,0,0,0.05,89.9,0)" xlink:href="#A"/><use transform="matrix(0.05,0,0,0.05,99.9,0)" xlink:href="#z"/></g><path fill="#3a414a" d="M115-194c55 1 70 41 70 98S169 2 115 4C84 4 66-9 55-30l1 105H24l-1-265h31l2 30c10-21 28-34 59-34zm-8 174c40 0 45-34 45-75s-6-73-45-74c-42 0-51 32-51 76 0 43 10 73 51 73" id="B"/><path fill="#3a414a" d="M100-194c62-1 85 37 85 99 1 63-27 99-86 99S16-35 15-95c0-66 28-99 85-99zM99-20c44 1 53-31 53-75 0-43-8-75-51-75s-53 32-53 75 10 74 51 75" id="C"/><path fill="#3a414a" d="M85-194c31 0 48 13 60 33l-1-100h32l1 261h-30c-2-10 0-23-3-31C134-8 116 4 85 4 32 4 16-35 15-94c0-66 23-100 70-100zm9 24c-40 0-46 34-46 75 0 40 6 74 45 74 42 0 51-32 51-76 0-42-9-74-50-73" id="D"/><path fill="#3a414a" d="M-5 72V49h209v23H-5" id="E"/><path fill="#3a414a" d="M24-231v-30h32v30H24zM24 0v-190h32V0H24" id="F"/><path fill="#3a414a" d="M177-190C167-65 218 103 67 71c-23-6-38-20-44-43l32-5c15 47 100 32 89-28v-30C133-14 115 1 83 1 29 1 15-40 15-95c0-56 16-97 71-98 29-1 48 16 59 35 1-10 0-23 2-32h30zM94-22c36 0 50-32 50-73 0-42-14-75-50-75-39 0-46 34-46 75s6 73 46 73" id="G"/><g id="b"><use transform="matrix(0.05,0,0,0.05,0,0)" xlink:href="#B"/><use transform="matrix(0.05,0,0,0.05,10,0)" xlink:href="#z"/><use transform="matrix(0.05,0,0,0.05,15.949999999999998,0)" xlink:href="#C"/><use transform="matrix(0.05,0,0,0.05,25.950000000000003,0)" xlink:href="#D"/><use transform="matrix(0.05,0,0,0.05,35.95,0)" xlink:href="#v"/><use transform="matrix(0.05,0,0,0.05,45.95,0)" xlink:href="#x"/><use transform="matrix(0.05,0,0,0.05,54.95,0)" xlink:href="#y"/><use transform="matrix(0.05,0,0,0.05,59.95,0)" xlink:href="#E"/><use transform="matrix(0.05,0,0,0.05,69.95,0)" xlink:href="#F"/><use transform="matrix(0.05,0,0,0.05,73.9,0)" xlink:href="#s"/><use transform="matrix(0.05,0,0,0.05,88.85000000000001,0)" xlink:href="#t"/><use transform="matrix(0.05,0,0,0.05,98.85000000000001,0)" xlink:href="#G"/><use transform="matrix(0.05,0,0,0.05,108.85000000000001,0)" xlink:href="#A"/></g><path fill="#3a414a" d="M179-190L93 31C79 59 56 82 12 73V49c39 6 53-20 64-50L1-190h34L92-34l54-156h33" id="H"/><g id="c"><use transform="matrix(0.05,0,0,0.05,0,0)" xlink:href="#x"/><use transform="matrix(0.05,0,0,0.05,9,0)" xlink:href="#t"/><use transform="matrix(0.05,0,0,0.05,19,0)" xlink:href="#y"/><use transform="matrix(0.05,0,0,0.05,24,0)" xlink:href="#A"/><use transform="matrix(0.05,0,0,0.05,34,0)" xlink:href="#G"/><use transform="matrix(0.05,0,0,0.05,44,0)" xlink:href="#C"/><use transform="matrix(0.05,0,0,0.05,54,0)" xlink:href="#z"/><use transform="matrix(0.05,0,0,0.05,59.95,0)" xlink:href="#H"/></g><g id="d"><use transform="matrix(0.05,0,0,0.05,0,0)" xlink:href="#B"/><use transform="matrix(0.05,0,0,0.05,10,0)" xlink:href="#z"/><use transform="matrix(0.05,0,0,0.05,15.949999999999998,0)" xlink:href="#C"/><use transform="matrix(0.05,0,0,0.05,25.950000000000003,0)" xlink:href="#D"/><use transform="matrix(0.05,0,0,0.05,35.95,0)" xlink:href="#v"/><use transform="matrix(0.05,0,0,0.05,45.95,0)" xlink:href="#x"/><use transform="matrix(0.05,0,0,0.05,54.95,0)" xlink:href="#y"/></g><path fill="#3a414a" d="M115-194c53 0 69 39 70 98 0 66-23 100-70 100C84 3 66-7 56-30L54 0H23l1-261h32v101c10-23 28-34 59-34zm-8 174c40 0 45-34 45-75 0-40-5-75-45-74-42 0-51 32-51 76 0 43 10 73 51 73" id="I"/><g id="e"><use transform="matrix(0.05,0,0,0.05,0,0)" xlink:href="#B"/><use transform="matrix(0.05,0,0,0.05,10,0)" xlink:href="#z"/><use transform="matrix(0.05,0,0,0.05,15.949999999999998,0)" xlink:href="#C"/><use transform="matrix(0.05,0,0,0.05,25.950000000000003,0)" xlink:href="#D"/><use transform="matrix(0.05,0,0,0.05,35.95,0)" xlink:href="#v"/><use transform="matrix(0.05,0,0,0.05,45.95,0)" xlink:href="#x"/><use transform="matrix(0.05,0,0,0.05,54.95,0)" xlink:href="#y"/><use transform="matrix(0.05,0,0,0.05,59.95,0)" xlink:href="#E"/><use transform="matrix(0.05,0,0,0.05,69.95,0)" xlink:href="#t"/><use transform="matrix(0.05,0,0,0.05,79.95,0)" xlink:href="#y"/><use transform="matrix(0.05,0,0,0.05,84.95,0)" xlink:href="#y"/><use transform="matrix(0.05,0,0,0.05,89.95,0)" xlink:href="#z"/><use transform="matrix(0.05,0,0,0.05,95.9,0)" xlink:href="#F"/><use transform="matrix(0.05,0,0,0.05,99.85000000000001,0)" xlink:href="#I"/><use transform="matrix(0.05,0,0,0.05,109.85000000000001,0)" xlink:href="#v"/><use transform="matrix(0.05,0,0,0.05,119.85000000000001,0)" xlink:href="#y"/><use transform="matrix(0.05,0,0,0.05,124.85000000000001,0)" xlink:href="#A"/></g><g id="f"><use transform="matrix(0.05,0,0,0.05,0,0)" xlink:href="#s"/><use transform="matrix(0.05,0,0,0.05,14.950000000000001,0)" xlink:href="#A"/><use transform="matrix(0.05,0,0,0.05,24.950000000000003,0)" xlink:href="#D"/><use transform="matrix(0.05,0,0,0.05,34.95,0)" xlink:href="#F"/><use transform="matrix(0.05,0,0,0.05,38.900000000000006,0)" xlink:href="#x"/><use transform="matrix(0.05,0,0,0.05,47.900000000000006,0)" xlink:href="#F"/><use transform="matrix(0.05,0,0,0.05,51.85,0)" xlink:href="#u"/><use transform="matrix(0.05,0,0,0.05,61.85,0)" xlink:href="#A"/></g><g id="g"><use transform="matrix(0.05,0,0,0.05,0,0)" xlink:href="#F"/><use transform="matrix(0.05,0,0,0.05,3.95,0)" xlink:href="#u"/><use transform="matrix(0.05,0,0,0.05,13.949999999999998,0)" xlink:href="#G"/><use transform="matrix(0.05,0,0,0.05,23.95,0)" xlink:href="#z"/><use transform="matrix(0.05,0,0,0.05,29.899999999999995,0)" xlink:href="#A"/><use transform="matrix(0.05,0,0,0.05,39.9,0)" xlink:href="#D"/><use transform="matrix(0.05,0,0,0.05,49.9,0)" xlink:href="#F"/><use transform="matrix(0.05,0,0,0.05,53.85,0)" xlink:href="#A"/><use transform="matrix(0.05,0,0,0.05,63.85,0)" xlink:href="#u"/><use transform="matrix(0.05,0,0,0.05,73.85,0)" xlink:href="#y"/></g><g id="h"><use transform="matrix(0.05,0,0,0.05,0,0)" xlink:href="#B"/><use transform="matrix(0.05,0,0,0.05,10,0)" xlink:href="#z"/><use transform="matrix(0.05,0,0,0.05,15.949999999999998,0)" xlink:href="#C"/><use transform="matrix(0.05,0,0,0.05,25.950000000000003,0)" xlink:href="#D"/><use transform="matrix(0.05,0,0,0.05,35.95,0)" xlink:href="#v"/><use transform="matrix(0.05,0,0,0.05,45.95,0)" xlink:href="#x"/><use transform="matrix(0.05,0,0,0.05,54.95,0)" xlink:href="#y"/><use transform="matrix(0.05,0,0,0.05,59.95,0)" xlink:href="#E"/><use transform="matrix(0.05,0,0,0.05,69.95,0)" xlink:href="#v"/><use transform="matrix(0.05,0,0,0.05,79.95,0)" xlink:href="#u"/><use transform="matrix(0.05,0,0,0.05,89.95,0)" xlink:href="#F"/><use transform="matrix(0.05,0,0,0.05,93.9,0)" xlink:href="#y"/></g><g id="i"><use transform="matrix(0.05,0,0,0.05,0,0)" xlink:href="#v"/><use transform="matrix(0.05,0,0,0.05,10,0)" xlink:href="#u"/><use transform="matrix(0.05,0,0,0.05,20,0)" xlink:href="#F"/><use transform="matrix(0.05,0,0,0.05,23.95,0)" xlink:href="#y"/></g><path fill="#3a414a" d="M135-143c-3-34-86-38-87 0 15 53 115 12 119 90S17 21 10-45l28-5c4 36 97 45 98 0-10-56-113-15-118-90-4-57 82-63 122-42 12 7 21 19 24 35" id="J"/><path fill="#3a414a" d="M143 0L79-87 56-68V0H24v-261h32v163l83-92h37l-77 82L181 0h-38" id="K"/><g id="j"><use transform="matrix(0.05,0,0,0.05,0,0)" xlink:href="#B"/><use transform="matrix(0.05,0,0,0.05,10,0)" xlink:href="#z"/><use transform="matrix(0.05,0,0,0.05,15.949999999999998,0)" xlink:href="#C"/><use transform="matrix(0.05,0,0,0.05,25.950000000000003,0)" xlink:href="#D"/><use transform="matrix(0.05,0,0,0.05,35.95,0)" xlink:href="#v"/><use transform="matrix(0.05,0,0,0.05,45.95,0)" xlink:href="#x"/><use transform="matrix(0.05,0,0,0.05,54.95,0)" xlink:href="#y"/><use transform="matrix(0.05,0,0,0.05,59.95,0)" xlink:href="#E"/><use transform="matrix(0.05,0,0,0.05,69.95,0)" xlink:href="#J"/><use transform="matrix(0.05,0,0,0.05,78.95,0)" xlink:href="#y"/><use transform="matrix(0.05,0,0,0.05,83.95,0)" xlink:href="#C"/><use transform="matrix(0.05,0,0,0.05,93.95,0)" xlink:href="#x"/><use transform="matrix(0.05,0,0,0.05,102.95,0)" xlink:href="#K"/></g><path fill="#3a414a" d="M24 0v-261h32V0H24" id="L"/><g id="k"><use transform="matrix(0.05,0,0,0.05,0,0)" xlink:href="#L"/><use transform="matrix(0.05,0,0,0.05,3.95,0)" xlink:href="#C"/><use transform="matrix(0.05,0,0,0.05,13.949999999999998,0)" xlink:href="#y"/></g><g id="l"><use transform="matrix(0.05,0,0,0.05,0,0)" xlink:href="#D"/><use transform="matrix(0.05,0,0,0.05,10,0)" xlink:href="#F"/><use transform="matrix(0.05,0,0,0.05,13.949999999999998,0)" xlink:href="#J"/><use transform="matrix(0.05,0,0,0.05,22.95,0)" xlink:href="#y"/><use transform="matrix(0.05,0,0,0.05,27.950000000000003,0)" xlink:href="#z"/><use transform="matrix(0.05,0,0,0.05,33.9,0)" xlink:href="#F"/><use transform="matrix(0.05,0,0,0.05,37.85,0)" xlink:href="#I"/><use transform="matrix(0.05,0,0,0.05,47.85,0)" xlink:href="#v"/><use transform="matrix(0.05,0,0,0.05,57.85,0)" xlink:href="#y"/><use transform="matrix(0.05,0,0,0.05,62.85,0)" xlink:href="#C"/><use transform="matrix(0.05,0,0,0.05,72.85,0)" xlink:href="#z"/></g><path fill="#3a414a" d="M106-169C34-169 62-67 57 0H25v-261h32l-1 103c12-21 28-36 61-36 89 0 53 116 60 194h-32v-121c2-32-8-49-39-48" id="M"/><g id="m"><use transform="matrix(0.05,0,0,0.05,0,0)" xlink:href="#J"/><use transform="matrix(0.05,0,0,0.05,9,0)" xlink:href="#M"/><use transform="matrix(0.05,0,0,0.05,19,0)" xlink:href="#F"/><use transform="matrix(0.05,0,0,0.05,22.95,0)" xlink:href="#B"/><use transform="matrix(0.05,0,0,0.05,32.95,0)" xlink:href="#s"/><use transform="matrix(0.05,0,0,0.05,47.900000000000006,0)" xlink:href="#A"/><use transform="matrix(0.05,0,0,0.05,57.900000000000006,0)" xlink:href="#u"/><use transform="matrix(0.05,0,0,0.05,67.9,0)" xlink:href="#y"/><use transform="matrix(0.05,0,0,0.05,72.9,0)" xlink:href="#E"/><use transform="matrix(0.05,0,0,0.05,82.9,0)" xlink:href="#D"/><use transform="matrix(0.05,0,0,0.05,92.9,0)" xlink:href="#A"/><use transform="matrix(0.05,0,0,0.05,102.9,0)" xlink:href="#y"/><use transform="matrix(0.05,0,0,0.05,107.9,0)" xlink:href="#t"/><use transform="matrix(0.05,0,0,0.05,117.9,0)" xlink:href="#F"/><use transform="matrix(0.05,0,0,0.05,121.85000000000001,0)" xlink:href="#L"/></g><g id="n"><use transform="matrix(0.05,0,0,0.05,0,0)" xlink:href="#J"/><use transform="matrix(0.05,0,0,0.05,9,0)" xlink:href="#M"/><use transform="matrix(0.05,0,0,0.05,19,0)" xlink:href="#F"/><use transform="matrix(0.05,0,0,0.05,22.95,0)" xlink:href="#B"/><use transform="matrix(0.05,0,0,0.05,32.95,0)" xlink:href="#s"/><use transform="matrix(0.05,0,0,0.05,47.900000000000006,0)" xlink:href="#A"/><use transform="matrix(0.05,0,0,0.05,57.900000000000006,0)" xlink:href="#u"/><use transform="matrix(0.05,0,0,0.05,67.9,0)" xlink:href="#y"/></g><path fill="#3a414a" d="M141 0L90-78 38 0H4l68-98-65-92h35l48 74 47-74h35l-64 92 68 98h-35" id="N"/><path fill="#3a414a" d="M145-31C134-9 116 4 85 4 32 4 16-35 15-94c0-59 17-99 70-100 32-1 48 14 60 33 0-11-1-24 2-32h30l-1 268h-32zM93-21c41 0 51-33 51-76s-8-73-50-73c-40 0-46 35-46 75s5 74 45 74" id="O"/><g id="o"><use transform="matrix(0.05,0,0,0.05,0,0)" xlink:href="#A"/><use transform="matrix(0.05,0,0,0.05,10,0)" xlink:href="#N"/><use transform="matrix(0.05,0,0,0.05,19,0)" xlink:href="#B"/><use transform="matrix(0.05,0,0,0.05,29,0)" xlink:href="#C"/><use transform="matrix(0.05,0,0,0.05,39,0)" xlink:href="#z"/><use transform="matrix(0.05,0,0,0.05,44.95,0)" xlink:href="#y"/><use transform="matrix(0.05,0,0,0.05,49.95,0)" xlink:href="#E"/><use transform="matrix(0.05,0,0,0.05,59.95,0)" xlink:href="#z"/><use transform="matrix(0.05,0,0,0.05,65.9,0)" xlink:href="#A"/><use transform="matrix(0.05,0,0,0.05,75.9,0)" xlink:href="#O"/><use transform="matrix(0.05,0,0,0.05,85.9,0)" xlink:href="#v"/><use transform="matrix(0.05,0,0,0.05,95.9,0)" xlink:href="#A"/><use transform="matrix(0.05,0,0,0.05,105.9,0)" xlink:href="#J"/><use transform="matrix(0.05,0,0,0.05,114.9,0)" xlink:href="#y"/><use transform="matrix(0.05,0,0,0.05,119.9,0)" xlink:href="#E"/><use transform="matrix(0.05,0,0,0.05,129.9,0)" xlink:href="#D"/><use transform="matrix(0.05,0,0,0.05,139.9,0)" xlink:href="#A"/><use transform="matrix(0.05,0,0,0.05,149.9,0)" xlink:href="#y"/><use transform="matrix(0.05,0,0,0.05,154.9,0)" xlink:href="#t"/><use transform="matrix(0.05,0,0,0.05,164.9,0)" xlink:href="#F"/><use transform="matrix(0.05,0,0,0.05,168.85,0)" xlink:href="#L"/></g><g id="p"><use transform="matrix(0.05,0,0,0.05,0,0)" xlink:href="#A"/><use transform="matrix(0.05,0,0,0.05,10,0)" xlink:href="#N"/><use transform="matrix(0.05,0,0,0.05,19,0)" xlink:href="#B"/><use transform="matrix(0.05,0,0,0.05,29,0)" xlink:href="#C"/><use transform="matrix(0.05,0,0,0.05,39,0)" xlink:href="#z"/><use transform="matrix(0.05,0,0,0.05,44.95,0)" xlink:href="#y"/><use transform="matrix(0.05,0,0,0.05,49.95,0)" xlink:href="#E"/><use transform="matrix(0.05,0,0,0.05,59.95,0)" xlink:href="#z"/><use transform="matrix(0.05,0,0,0.05,65.9,0)" xlink:href="#A"/><use transform="matrix(0.05,0,0,0.05,75.9,0)" xlink:href="#O"/><use transform="matrix(0.05,0,0,0.05,85.9,0)" xlink:href="#v"/><use transform="matrix(0.05,0,0,0.05,95.9,0)" xlink:href="#A"/><use transform="matrix(0.05,0,0,0.05,105.9,0)" xlink:href="#J"/><use transform="matrix(0.05,0,0,0.05,114.9,0)" xlink:href="#y"/></g><g id="q"><use transform="matrix(0.05,0,0,0.05,0,0)" xlink:href="#F"/><use transform="matrix(0.05,0,0,0.05,3.95,0)" xlink:href="#s"/><use transform="matrix(0.05,0,0,0.05,18.900000000000002,0)" xlink:href="#B"/><use transform="matrix(0.05,0,0,0.05,28.900000000000002,0)" xlink:href="#C"/><use transform="matrix(0.05,0,0,0.05,38.900000000000006,0)" xlink:href="#z"/><use transform="matrix(0.05,0,0,0.05,44.85000000000001,0)" xlink:href="#y"/><use transform="matrix(0.05,0,0,0.05,49.85000000000001,0)" xlink:href="#E"/><use transform="matrix(0.05,0,0,0.05,59.85,0)" xlink:href="#z"/><use transform="matrix(0.05,0,0,0.05,65.80000000000001,0)" xlink:href="#A"/><use transform="matrix(0.05,0,0,0.05,75.80000000000001,0)" xlink:href="#O"/><use transform="matrix(0.05,0,0,0.05,85.80000000000001,0)" xlink:href="#v"/><use transform="matrix(0.05,0,0,0.05,95.80000000000001,0)" xlink:href="#A"/><use transform="matrix(0.05,0,0,0.05,105.80000000000001,0)" xlink:href="#J"/><use transform="matrix(0.05,0,0,0.05,114.80000000000001,0)" xlink:href="#y"/><use transform="matrix(0.05,0,0,0.05,119.80000000000001,0)" xlink:href="#E"/><use transform="matrix(0.05,0,0,0.05,129.8,0)" xlink:href="#D"/><use transform="matrix(0.05,0,0,0.05,139.8,0)" xlink:href="#A"/><use transform="matrix(0.05,0,0,0.05,149.8,0)" xlink:href="#y"/><use transform="matrix(0.05,0,0,0.05,154.8,0)" xlink:href="#t"/><use transform="matrix(0.05,0,0,0.05,164.8,0)" xlink:href="#F"/><use transform="matrix(0.05,0,0,0.05,168.75,0)" xlink:href="#L"/></g><g id="r"><use transform="matrix(0.05,0,0,0.05,0,0)" xlink:href="#F"/><use transform="matrix(0.05,0,0,0.05,3.95,0)" xlink:href="#s"/><use transform="matrix(0.05,0,0,0.05,18.900000000000002,0)" xlink:href="#B"/><use transform="matrix(0.05,0,0,0.05,28.900000000000002,0)" xlink:href="#C"/><use transform="matrix(0.05,0,0,0.05,38.900000000000006,0)" xlink:href="#z"/><use transform="matrix(0.05,0,0,0.05,44.85000000000001,0)" xlink:href="#y"/><use transform="matrix(0.05,0,0,0.05,49.85000000000001,0)" xlink:href="#E"/><use transform="matrix(0.05,0,0,0.05,59.85,0)" xlink:href="#z"/><use transform="matrix(0.05,0,0,0.05,65.80000000000001,0)" xlink:href="#A"/><use transform="matrix(0.05,0,0,0.05,75.80000000000001,0)" xlink:href="#O"/><use transform="matrix(0.05,0,0,0.05,85.80000000000001,0)" xlink:href="#v"/><use transform="matrix(0.05,0,0,0.05,95.80000000000001,0)" xlink:href="#A"/><use transform="matrix(0.05,0,0,0.05,105.80000000000001,0)" xlink:href="#J"/><use transform="matrix(0.05,0,0,0.05,114.80000000000001,0)" xlink:href="#y"/></g></defs></g></svg>